<svg width="131" height="61" viewBox="0 0 131 61" fill="none" xmlns="http://www.w3.org/2000/svg">
<path d="M38.8818 17.4277H41.8838L42.9189 21.8271H50.2686V25.709H43.6694V41.314C43.6694 43.8501 44.765 45.1182 46.9561 45.1182H50.2686V49H45.7139C41.1592 49 38.8818 46.5588 38.8818 41.6763V17.4277ZM56.376 49V21.8271H59.6108L60.4648 25.2949C62.8457 22.9831 65.7096 21.8271 69.0566 21.8271V25.8125C65.8132 25.8125 63.1821 26.9598 61.1636 29.2544V49H56.376ZM97.2905 21.8271V49H94.0039L93.1758 45.5322C89.8805 47.8441 86.568 49 83.2383 49C76.9928 49 73.8701 45.6271 73.8701 38.8813V21.8271H78.6577V38.959C78.6577 42.9961 80.659 45.0146 84.6616 45.0146C87.4048 45.0146 90.0186 43.8674 92.5029 41.5728V21.8271H97.2905ZM116.286 21.8271C124.015 21.8271 127.879 25.6486 127.879 33.2915C127.879 34.3784 127.802 35.543 127.646 36.7852H108.574C108.574 42.3405 111.817 45.1182 118.304 45.1182C121.392 45.1182 124.136 44.7731 126.534 44.083V47.9648C124.136 48.6549 121.22 49 117.787 49C108.453 49 103.786 44.3677 103.786 35.103C103.786 26.2524 107.953 21.8271 116.286 21.8271ZM108.574 32.7998H123.273C123.169 28.0381 120.84 25.6572 116.286 25.6572C111.455 25.6572 108.884 28.0381 108.574 32.7998Z" fill="black"/>
<g filter="url(#filter0_d_4_5)">
<mask id="path-2-outside-1_4_5" maskUnits="userSpaceOnUse" x="0" y="10" width="42" height="44" fill="black">
<rect fill="white" y="10" width="42" height="44"/>
<path d="M19.2275 32.4019L3.0083 11.8037H6.60938L21.0137 30.126L35.418 11.8037H39.019L22.8286 32.4019L39.019 53H35.418L21.0137 34.6777L6.60938 53H3.0083L19.2275 32.4019Z"/>
</mask>
<path d="M19.2275 32.4019L3.0083 11.8037H6.60938L21.0137 30.126L35.418 11.8037H39.019L22.8286 32.4019L39.019 53H35.418L21.0137 34.6777L6.60938 53H3.0083L19.2275 32.4019Z" fill="black"/>
<path d="M19.2275 32.4019L20.0132 33.0205L20.5003 32.4019L20.0132 31.7832L19.2275 32.4019ZM3.0083 11.8037V10.8037H0.948089L2.22263 12.4224L3.0083 11.8037ZM6.60938 11.8037L7.39552 11.1857L7.09524 10.8037H6.60938V11.8037ZM21.0137 30.126L20.2275 30.744L21.0137 31.744L21.7998 30.744L21.0137 30.126ZM35.418 11.8037V10.8037H34.9321L34.6318 11.1857L35.418 11.8037ZM39.019 11.8037L39.8052 12.4217L41.077 10.8037H39.019V11.8037ZM22.8286 32.4019L22.0424 31.7839L21.5567 32.4019L22.0424 33.0198L22.8286 32.4019ZM39.019 53V54H41.077L39.8052 52.382L39.019 53ZM35.418 53L34.6318 53.618L34.9321 54H35.418V53ZM21.0137 34.6777L21.7998 34.0597L21.0137 33.0597L20.2275 34.0597L21.0137 34.6777ZM6.60938 53V54H7.09524L7.39552 53.618L6.60938 53ZM3.0083 53L2.22263 52.3814L0.948089 54H3.0083V53ZM19.2275 32.4019L20.0132 31.7832L3.79397 11.1851L3.0083 11.8037L2.22263 12.4224L18.4419 33.0205L19.2275 32.4019ZM3.0083 11.8037V12.8037H6.60938V11.8037V10.8037H3.0083V11.8037ZM6.60938 11.8037L5.82323 12.4218L20.2275 30.744L21.0137 30.126L21.7998 29.5079L7.39552 11.1857L6.60938 11.8037ZM21.0137 30.126L21.7998 30.744L36.2041 12.4218L35.418 11.8037L34.6318 11.1857L20.2275 29.5079L21.0137 30.126ZM35.418 11.8037V12.8037H39.019V11.8037V10.8037H35.418V11.8037ZM39.019 11.8037L38.2328 11.1857L22.0424 31.7839L22.8286 32.4019L23.6148 33.0198L39.8052 12.4217L39.019 11.8037ZM22.8286 32.4019L22.0424 33.0198L38.2328 53.618L39.019 53L39.8052 52.382L23.6148 31.7839L22.8286 32.4019ZM39.019 53V52H35.418V53V54H39.019V53ZM35.418 53L36.2041 52.382L21.7998 34.0597L21.0137 34.6777L20.2275 35.2958L34.6318 53.618L35.418 53ZM21.0137 34.6777L20.2275 34.0597L5.82323 52.382L6.60938 53L7.39552 53.618L21.7998 35.2958L21.0137 34.6777ZM6.60938 53V52H3.0083V53V54H6.60938V53ZM3.0083 53L3.79397 53.6186L20.0132 33.0205L19.2275 32.4019L18.4419 31.7832L2.22263 52.3814L3.0083 53Z" fill="black" mask="url(#path-2-outside-1_4_5)"/>
</g>
<defs>
<filter id="filter0_d_4_5" x="0.94809" y="10.8037" width="46.1289" height="50.1963" filterUnits="userSpaceOnUse" color-interpolation-filters="sRGB">
<feFlood flood-opacity="0" result="BackgroundImageFix"/>
<feColorMatrix in="SourceAlpha" type="matrix" values="0 0 0 0 0 0 0 0 0 0 0 0 0 0 0 0 0 0 127 0" result="hardAlpha"/>
<feOffset dx="3" dy="4"/>
<feGaussianBlur stdDeviation="1.5"/>
<feComposite in2="hardAlpha" operator="out"/>
<feColorMatrix type="matrix" values="0 0 0 0 0 0 0 0 0 0 0 0 0 0 0 0 0 0 0.25 0"/>
<feBlend mode="normal" in2="BackgroundImageFix" result="effect1_dropShadow_4_5"/>
<feBlend mode="normal" in="SourceGraphic" in2="effect1_dropShadow_4_5" result="shape"/>
</filter>
</defs>
</svg>
